<svg width="1200" height="240" viewBox="0 0 1200 240" fill="none" xmlns="http://www.w3.org/2000/svg">
<g id="logo-CaenSup-noir">
<g id="V02">
<g id="Group">
<g id="Group_2" opacity="0.9">
<path id="Path" d="M1027.89 29.2325C1006.81 48.6634 1078.15 106.452 1078.15 106.452C1078.15 106.452 1062.75 90.5619 1059.62 69.4017C1055.66 42.6085 1042.69 15.586 1027.89 29.2325" fill="#ED1C24"/>
</g>
<path id="Path_2" d="M1070.8 10.2925C1043.55 18.9116 1083.99 101.708 1083.99 101.708C1083.99 101.708 1076.7 80.7409 1082.73 60.2321C1090.36 34.26 1089.92 4.23752 1070.8 10.2925" fill="#ED1C24"/>
<path id="Path_3" d="M1118.41 7.11363C1088.81 3.1458 1090.89 99.6168 1090.89 99.6168C1090.89 99.6168 1093.16 76.4979 1107.84 59.7504C1126.45 38.5398 1139.16 9.89799 1118.41 7.11363" fill="#ED1C24"/>
<path id="Path_4" d="M1159.57 32.416C1135.52 16.8979 1098.66 101.383 1098.66 101.383C1098.66 101.383 1109.88 82.2639 1129.33 73.741C1153.96 62.9385 1176.45 43.3103 1159.57 32.416" fill="#ED1C24"/>
<g id="Group_3" opacity="0.9">
<path id="Path_5" d="M1188.8 69.3329C1173.5 45.0121 1104.72 105.86 1104.72 105.86C1104.72 105.86 1122.9 93.3187 1144.08 93.8921C1170.93 94.6031 1199.54 86.4014 1188.8 69.3329" fill="#ED1C24"/>
</g>
<g id="Group_4" opacity="0.8">
<path id="Path_6" d="M1199.84 115.254C1196.15 86.6904 1108.33 112.502 1108.33 112.502C1108.33 112.502 1130.05 108.892 1149.03 118.442C1173.04 130.543 1202.42 135.318 1199.84 115.254" fill="#ED1C24"/>
</g>
<g id="Group_5" opacity="0.7">
<path id="Path_7" d="M1190.03 161.799C1198.66 134.332 1108.25 120.277 1108.25 120.277C1108.25 120.277 1129.46 126.272 1142.65 143.024C1159.36 164.226 1183.97 181.074 1190.03 161.799" fill="#ED1C24"/>
</g>
</g>
<g id="D&#195;&#137;COUVREZ">
<path d="M40.2002 86.4744C32.0402 86.4744 25.1202 84.7553 19.4402 81.3171C13.8402 77.7989 9.56016 72.8016 6.60016 66.325C3.64016 59.8484 2.16016 52.1325 2.16016 43.1772C2.16016 34.2219 3.64016 26.546 6.60016 20.1494C9.56016 13.6728 13.8402 8.7154 19.4402 5.27722C25.1202 1.75907 32.0402 0 40.2002 0C46.3602 0 51.7602 0.999473 56.4002 2.99842C61.1202 4.91741 65.2802 7.75591 68.8802 11.5139L66.2402 15.7117C62.3202 11.9537 58.3202 9.23513 54.2402 7.55601C50.2402 5.79694 45.5202 4.9174 40.0802 4.9174C29.4402 4.9174 21.3602 8.27563 15.8402 14.9921C10.3202 21.6286 7.56016 31.0236 7.56016 43.1772C7.56016 51.3329 8.76016 58.2892 11.1602 64.0462C13.6402 69.7232 17.2802 74.0809 22.0802 77.1193C26.9602 80.0777 32.9602 81.557 40.0802 81.557C45.5202 81.557 50.2402 80.7174 54.2402 79.0383C58.3202 77.2792 62.3202 74.5207 66.2402 70.7627L68.8802 74.9604C65.2802 78.7185 61.1202 81.5969 56.4002 83.5959C51.6802 85.5149 46.2802 86.4744 40.2002 86.4744Z" fill="#231F20"/>
<path d="M108.294 86.4744C102.854 86.4744 98.1336 85.235 94.1336 82.7563C90.1336 80.2776 87.0536 76.7195 84.8936 72.082C82.7336 67.4444 81.6536 61.9273 81.6536 55.5307C81.6536 49.0541 82.7336 43.537 84.8936 38.9794C87.1336 34.3419 90.2536 30.7838 94.2536 28.3051C98.2536 25.8264 102.934 24.587 108.294 24.587C113.974 24.587 118.814 26.0662 122.814 29.0247C126.894 31.9831 129.574 36.061 130.854 41.2582H129.414L130.614 25.5465H135.534C135.294 27.7853 135.054 29.9842 134.814 32.143C134.654 34.3019 134.574 36.4208 134.574 38.4997V85.5149H129.534V69.8032H130.854C129.574 75.0004 126.894 79.0783 122.814 82.0367C118.734 84.9951 113.894 86.4744 108.294 86.4744ZM108.294 81.7968C114.854 81.7968 120.054 79.558 123.894 75.0804C127.734 70.5228 129.654 64.0062 129.654 55.5307C129.654 47.0552 127.734 40.5786 123.894 36.1009C120.054 31.5434 114.854 29.2646 108.294 29.2646C101.734 29.2646 96.4936 31.5434 92.5736 36.1009C88.7336 40.5786 86.8136 47.0552 86.8136 55.5307C86.8136 64.0062 88.7336 70.5228 92.5736 75.0804C96.4936 79.558 101.734 81.7968 108.294 81.7968Z" fill="#231F20"/>
<path d="M181.315 86.4744C175.475 86.4744 170.395 85.275 166.075 82.8763C161.755 80.4775 158.395 76.9994 155.995 72.4418C153.675 67.8042 152.515 62.2472 152.515 55.7706C152.515 49.3739 153.675 43.8569 155.995 39.2193C158.315 34.5818 161.555 30.9836 165.715 28.425C169.955 25.8664 174.795 24.587 180.235 24.587C185.435 24.587 189.835 25.7064 193.435 27.9453C197.115 30.1041 199.915 33.2624 201.835 37.4203C203.835 41.4981 204.835 46.3755 204.835 52.0525V55.2908H155.755V50.7332H202.195L200.155 52.2924C200.155 45.0962 198.475 39.4592 195.115 35.3813C191.755 31.2235 186.755 29.1446 180.115 29.1446C175.395 29.1446 171.355 30.264 167.995 32.5028C164.635 34.6617 162.075 37.7001 160.315 41.618C158.555 45.456 157.675 49.9736 157.675 55.1709V55.7706C157.675 64.2461 159.755 70.7227 163.915 75.2003C168.075 79.598 173.875 81.7968 181.315 81.7968C185.075 81.7968 188.595 81.1971 191.875 79.9978C195.155 78.7984 198.315 76.7595 201.355 73.881L203.875 77.8389C201.395 80.5575 198.115 82.6764 194.035 84.1956C189.955 85.7148 185.715 86.4744 181.315 86.4744Z" fill="#231F20"/>
<path d="M222.416 85.5149V38.4997C222.416 36.4208 222.296 34.3019 222.056 32.143C221.896 29.9842 221.696 27.7853 221.456 25.5465H226.376L227.456 39.9389H226.016C227.696 34.9016 230.496 31.1036 234.416 28.5449C238.416 25.9063 243.096 24.587 248.456 24.587C255.576 24.587 260.936 26.4261 264.536 30.1041C268.216 33.7822 270.056 39.5391 270.056 47.375V85.5149H265.016V47.8547C265.016 41.3782 263.696 36.6607 261.056 33.7022C258.416 30.7438 254.256 29.2646 248.576 29.2646C242.096 29.2646 236.936 31.2235 233.096 35.1415C229.336 39.0594 227.456 44.3366 227.456 50.9731V85.5149H222.416Z" fill="#231F20"/>
<path d="M318.754 86.4744C311.954 86.4744 306.034 85.5948 300.994 83.8358C295.954 81.9967 291.434 79.3581 287.434 75.9199L289.954 71.6022C292.914 73.921 295.754 75.84 298.474 77.3592C301.194 78.7984 304.154 79.8778 307.354 80.5975C310.634 81.2371 314.394 81.557 318.634 81.557C326.474 81.557 332.394 79.9978 336.394 76.8794C340.474 73.6811 342.514 69.4434 342.514 64.1661C342.514 59.6885 341.074 56.2503 338.194 53.8516C335.394 51.4528 330.554 49.5738 323.674 48.2146L311.794 45.8158C304.034 44.2167 298.274 41.698 294.514 38.2598C290.754 34.8216 288.874 30.0641 288.874 23.9873C288.874 19.1899 290.114 14.9921 292.594 11.394C295.074 7.79589 298.514 4.99736 302.914 2.99842C307.314 0.999473 312.434 0 318.274 0C324.194 0 329.594 0.919513 334.474 2.75854C339.354 4.59757 343.554 7.35612 347.074 11.0342L344.674 15.3519C340.754 11.5939 336.714 8.9153 332.554 7.31614C328.394 5.71698 323.634 4.9174 318.274 4.9174C310.914 4.9174 305.034 6.6365 300.634 10.0747C296.314 13.5129 294.154 18.1504 294.154 23.9873C294.154 28.7049 295.554 32.3829 298.354 35.0215C301.154 37.5802 305.674 39.4992 311.914 40.7785L323.914 43.1772C332.234 44.8563 338.274 47.295 342.034 50.4934C345.874 53.6117 347.794 58.1293 347.794 64.0462C347.794 68.4439 346.634 72.3618 344.314 75.8C341.994 79.1582 338.634 81.7968 334.234 83.7158C329.914 85.5548 324.754 86.4744 318.754 86.4744Z" fill="#231F20"/>
<path d="M385.956 86.4744C378.996 86.4744 373.716 84.5954 370.116 80.8373C366.516 77.0793 364.716 71.3224 364.716 63.5665V25.5465H369.756V63.0867C369.756 69.5633 371.076 74.3208 373.716 77.3592C376.356 80.3176 380.436 81.7968 385.956 81.7968C392.116 81.7968 397.036 79.8379 400.716 75.9199C404.396 71.922 406.236 66.6448 406.236 60.0883V25.5465H411.276V85.5149H406.356V70.8826H407.796C406.196 75.84 403.436 79.6779 399.516 82.3965C395.676 85.1151 391.156 86.4744 385.956 86.4744Z" fill="#231F20"/>
<path d="M433.241 111.421V38.4997C433.241 36.4208 433.121 34.3019 432.881 32.143C432.721 29.9842 432.521 27.7853 432.281 25.5465H437.201L438.401 41.2582H436.961C438.321 36.061 440.961 31.9831 444.881 29.0247C448.881 26.0662 453.761 24.587 459.521 24.587C464.961 24.587 469.641 25.8264 473.561 28.3051C477.561 30.7838 480.641 34.3419 482.801 38.9794C485.041 43.537 486.161 49.0541 486.161 55.5307C486.161 61.9273 485.081 67.4444 482.921 72.082C480.761 76.7195 477.681 80.2776 473.681 82.7563C469.681 85.235 464.961 86.4744 459.521 86.4744C453.761 86.4744 448.881 84.9951 444.881 82.0367C440.961 79.0783 438.321 75.0004 436.961 69.8032H438.281V111.421H433.241ZM459.521 81.7968C466.081 81.7968 471.281 79.558 475.121 75.0804C479.041 70.5228 481.001 64.0062 481.001 55.5307C481.001 47.0552 479.041 40.5786 475.121 36.1009C471.281 31.5434 466.081 29.2646 459.521 29.2646C452.961 29.2646 447.761 31.5434 443.921 36.1009C440.081 40.5786 438.161 47.0552 438.161 55.5307C438.161 64.0062 440.081 70.5228 443.921 75.0804C447.761 79.558 452.961 81.7968 459.521 81.7968Z" fill="#231F20"/>
</g>
<g id="Group_6">
<path id="Path_8" d="M20.9227 236.505C12.3546 234.179 5.37728 231.023 0 227.023L9.71819 204.913C15.4273 208.569 21.5046 211.372 27.9227 213.312C34.35 215.248 40.8046 216.221 47.2818 216.221C53.8773 216.221 58.9273 215.303 62.4455 213.477C65.9546 211.652 67.7137 209.065 67.7137 205.744C67.7137 202.753 66.1273 200.29 62.9409 198.345C59.7546 196.409 53.7591 194.496 44.9728 192.611C33.8818 190.395 25.2591 187.643 19.1091 184.382C12.9591 181.111 8.64546 177.258 6.17273 172.827C3.70909 168.391 2.47273 163.006 2.47273 156.694C2.47273 149.488 4.5 142.974 8.56364 137.153C12.6273 131.336 18.3409 126.791 25.6955 123.52C33.0546 120.25 41.4591 118.621 50.9091 118.621C59.3682 118.621 67.5773 119.809 75.541 122.19C83.5091 124.571 89.7364 127.704 94.2455 131.584L84.6864 153.699C79.5228 150.043 74.0864 147.24 68.3728 145.304C62.6637 143.364 56.9455 142.396 51.2409 142.396C45.6364 142.396 41.1318 143.479 37.7273 145.634C34.3182 147.8 32.6227 150.708 32.6227 154.364C32.6227 156.359 33.2227 158.024 34.4364 159.354C35.6409 160.685 37.8909 161.992 41.1909 163.263C44.4818 164.538 49.4273 165.896 56.0137 167.336C66.6773 169.662 75.0455 172.464 81.1455 175.735C87.241 179.001 91.5546 182.827 94.0773 187.207C96.6091 191.583 97.8728 196.826 97.8728 202.918C97.8728 214.45 93.4228 223.514 84.5182 230.106C75.6273 236.702 63.1046 240 46.9546 240C38.1637 240 29.4909 238.835 20.9227 236.505" fill="#231F20"/>
<path id="Shape" fill-rule="evenodd" clip-rule="evenodd" d="M200.355 238.505V154.033H171.018V164.841C168.5 160.85 164.95 157.662 160.4 155.281C155.836 152.9 150.814 151.703 145.323 151.703C138.295 151.703 131.973 153.588 126.368 157.354C120.768 161.125 116.377 166.396 113.186 173.157C110 179.918 108.414 187.675 108.414 196.436C108.414 205.083 109.977 212.707 113.114 219.298C116.241 225.895 120.604 230.968 126.209 234.509C131.809 238.06 138.177 239.835 145.323 239.835C150.814 239.835 155.868 238.693 160.482 236.422C165.1 234.156 168.605 231.023 171.018 227.032V238.505H200.355ZM171.018 196.102C171.018 202.973 169.596 208.239 166.746 211.899C163.886 215.555 159.818 217.39 154.55 217.39C149.164 217.39 145.046 215.587 142.196 211.982C139.332 208.381 137.909 203.198 137.909 196.436C137.909 189.446 139.391 184.047 142.355 180.226C145.323 176.395 149.382 174.487 154.55 174.487C159.818 174.487 163.886 176.34 166.746 180.056C169.596 183.771 171.018 189.115 171.018 196.102Z" fill="#231F20"/>
<path id="Shape_2" fill-rule="evenodd" clip-rule="evenodd" d="M247.146 112.63H216.005V139.735H247.146V112.63ZM246.659 154.033H216.832V238.505H246.659V154.033Z" fill="#231F20"/>
<path id="Path_9" d="M341.314 160.767C346.2 166.804 348.641 175.928 348.641 188.12V238.5H318.823V189.45C318.823 184.244 317.941 180.501 316.186 178.226C314.423 175.955 311.673 174.822 307.95 174.822C303.441 174.822 299.814 176.345 297.068 179.391C294.323 182.441 292.95 186.46 292.95 191.441V238.5H263.127V178.308C263.127 169.221 262.686 161.13 261.809 154.029H289.823L291.305 166.501C294.491 161.74 298.441 158.079 303.164 155.524C307.891 152.983 313.214 151.708 319.15 151.708C329.036 151.708 336.423 154.726 341.314 160.767" fill="#231F20"/>
<path id="Path_10" d="M421.964 214.56V237.339C417.905 239 412.736 239.83 406.477 239.83C395.164 239.83 386.568 236.615 380.691 230.193C374.809 223.762 371.877 214.835 371.877 203.418V176.148H356.218V154.033H371.877V134.905L401.696 125.272V154.033H421.8V176.148H401.696V203.418C401.696 207.409 402.873 210.432 405.246 212.477C407.6 214.528 410.541 215.56 414.055 215.56C416.032 215.56 418.673 215.221 421.964 214.56" fill="#231F20"/>
<path id="Shape_3" fill-rule="evenodd" clip-rule="evenodd" d="M456.564 199.262H509.127V195.271C509.127 186.515 507.536 178.836 504.35 172.24C501.164 165.648 496.6 160.57 490.673 157.024C484.745 153.478 477.818 151.703 469.914 151.703C461.782 151.703 454.559 153.588 448.241 157.354C441.927 161.125 436.986 166.363 433.414 173.074C429.845 179.776 428.059 187.395 428.059 195.936C428.059 204.913 429.927 212.707 433.659 219.298C437.395 225.895 442.782 230.968 449.809 234.509C456.836 238.06 465.132 239.835 474.686 239.835C480.618 239.835 486.55 238.94 492.482 237.17C498.414 235.399 503.464 232.959 507.641 229.858L500.059 209.899C496.659 212.34 492.868 214.253 488.695 215.638C484.523 217.023 480.345 217.716 476.173 217.716C470.018 217.716 465.35 216.28 462.164 213.395C458.977 210.514 457.114 205.803 456.564 199.262ZM483.591 185.29H456.895C458.759 176.643 463.368 172.322 470.732 172.322C478.209 172.322 482.491 176.643 483.591 185.29Z" fill="#231F20"/>
<rect id="Rectangle" x="523.3" y="181.799" width="53.3818" height="23.2795" fill="#231F20"/>
<path id="Path_11" d="M608.809 226.95C600.023 218.248 595.632 205.473 595.632 188.62V120.116H625.777V189.785C625.777 198.322 627.677 204.863 631.468 209.404C635.255 213.954 640.664 216.225 647.7 216.225C654.614 216.225 659.941 213.927 663.677 209.326C667.414 204.721 669.282 198.212 669.282 189.785V120.116H699.759V188.62C699.759 205.248 695.291 217.964 686.336 226.78C677.377 235.596 664.505 240 647.7 240C630.559 240 617.595 235.656 608.809 226.95" fill="#231F20"/>
<path id="Path_12" d="M779.346 153.864V181.304C774.619 179.088 770.064 177.978 765.669 177.978C753.146 177.978 746.887 184.024 746.887 196.106V238.5H717.064V178.308C717.064 169.221 716.623 161.13 715.746 154.033H743.755L745.569 168.166C747.546 162.955 750.728 158.969 755.128 156.194C759.514 153.428 764.464 152.033 769.951 152.033C774.019 152.033 777.151 152.648 779.346 153.864" fill="#231F20"/>
<path id="Path_13" d="M780.828 229.688L788.409 209.234C792.914 212.34 798.023 214.757 803.732 216.473C809.441 218.193 815.05 219.051 820.537 219.051C823.941 219.051 826.582 218.546 828.45 217.546C830.314 216.555 831.246 215.17 831.246 213.39C831.246 211.844 830.559 210.601 829.191 209.652C827.814 208.711 825.205 207.854 821.364 207.078L807.85 203.918C799.282 202.143 793.105 199.34 789.309 195.524C785.528 191.693 783.637 186.4 783.637 179.639C783.637 174.207 785.223 169.391 788.409 165.175C791.596 160.96 796.019 157.662 801.678 155.281C807.328 152.896 813.837 151.708 821.2 151.708C827.237 151.708 833.173 152.598 838.996 154.368C844.819 156.143 850.255 158.63 855.309 161.845L847.396 181.799C843 178.918 838.5 176.703 833.887 175.148C829.278 173.597 824.932 172.822 820.873 172.822C817.569 172.822 814.991 173.35 813.128 174.4C811.255 175.455 810.323 176.978 810.323 178.978C810.323 180.194 810.873 181.166 811.969 181.886C813.069 182.606 815.155 183.349 818.237 184.134L832.237 187.29C841.137 189.4 847.537 192.473 851.437 196.524C855.332 200.565 857.282 206.078 857.282 213.06C857.282 221.376 854.014 227.918 847.482 232.688C840.946 237.445 831.905 239.835 820.373 239.835C803.673 239.835 790.496 236.459 780.828 229.688" fill="#231F20"/>
<path id="Path_14" d="M953.009 154.033V238.505H923.846V227.197C918.468 235.624 910.5 239.835 899.95 239.835C889.296 239.835 881.364 236.844 876.146 230.853C870.927 224.867 868.318 215.73 868.318 203.413V154.033H898.141V204.248C898.141 212.56 901.709 216.716 908.855 216.716C913.023 216.716 916.405 215.225 918.982 212.234C921.564 209.239 922.859 205.248 922.859 200.258V154.033H953.009V154.033Z" fill="#231F20"/>
<rect id="Rectangle_2" x="969.491" y="116.121" width="29.8227" height="122.383" fill="#231F20"/>
<path id="Shape_4" fill-rule="evenodd" clip-rule="evenodd" d="M1040.5 199.262H1093.06V195.271C1093.06 186.515 1091.47 178.836 1088.28 172.24C1085.1 165.648 1080.53 160.57 1074.61 157.024C1068.68 153.478 1061.76 151.703 1053.85 151.703C1045.72 151.703 1038.5 153.588 1032.17 157.354C1025.86 161.125 1020.92 166.364 1017.35 173.074C1013.78 179.776 1012 187.395 1012 195.936C1012 204.913 1013.86 212.707 1017.6 219.298C1021.33 225.895 1026.71 230.968 1033.75 234.509C1040.77 238.06 1049.07 239.835 1058.62 239.835C1064.56 239.835 1070.48 238.94 1076.41 237.17C1082.35 235.399 1087.4 232.959 1091.58 229.858L1084 209.9C1080.59 212.34 1076.81 214.253 1072.63 215.638C1068.46 217.023 1064.28 217.716 1060.11 217.716C1053.95 217.716 1049.28 216.28 1046.1 213.395C1042.91 210.514 1041.05 205.803 1040.5 199.262ZM1067.52 185.29H1040.83C1042.7 176.643 1047.31 172.322 1054.67 172.322C1062.14 172.322 1066.42 176.643 1067.52 185.29Z" fill="#231F20"/>
</g>
</g>
</g>
</svg>
